# xmcd
#
# Track frame offsets:
#	150
#	17483
#	35500
#	52716
#	71864
#	86993
#	102006
#	125147
#	136871
#	151410
#	165518
#	184179
#	199962
#	220744
#	234835
#	248707
#	261021
#	279594
#	298644
#
# Disc length: 4219 seconds
#
# Revision: 1
# Processed by: cddbd v1.5.1PL2 Copyright (c) Steve Scherf et al.
# Submitted via: audiograbber 1.83.01
#
DISCID=0d107913
DTITLE=Norah Jones - Best of Norah Jones
DYEAR=1900
DGENRE=
TTITLE0=Virgingia moon (Feat. Foo Fighters)
TTITLE1=Hear we go again (Feat. Ray Charles)
TTITLE2=New York city (Feat. The Peter Malick Group)
TTITLE3=I¥ve got to see you again
TTITLE4=Sunrise
TTITLE5=Come away with me
TTITLE6=Heart of mine (Feat. The Peter Malick Group)
TTITLE7=Turn me on
TTITLE8=The long way home
TTITLE9=Lonestar
TTITLE10=Strange Transmissions (Feat. The Malick Group)
TTITLE11=What am I to do?
TTITLE12=Humble me
TTITLE13=Donﬂt no why
TTITLE14=Dont miss you at all
TTITLE15=Painter song
TTITLE16=In the morning
TTITLE17=Nightingale
TTITLE18=Shoot the moon
EXTD=
EXTT0=
EXTT1=
EXTT2=
EXTT3=
EXTT4=
EXTT5=
EXTT6=
EXTT7=
EXTT8=
EXTT9=
EXTT10=
EXTT11=
EXTT12=
EXTT13=
EXTT14=
EXTT15=
EXTT16=
EXTT17=
EXTT18=
PLAYORDER=
